<svg class="icon" style="vertical-align: middle;fill: currentColor;overflow: hidden;" viewBox="0 0 1024 1024" version="1.1" xmlns="http://www.w3.org/2000/svg" p-id="4495"><path d="M210.5 628.4l-3.4 171.3 172.2-3.3 25.7-25.7-168.8-168z" fill="#FFFFFF" p-id="4496"></path><path d="M199 807.8l3.6-182.8 33.6-33.6 180.1 179.2-33.7 33.7-183.6 3.5z m19.4-176l-3.2 159.7 160.6-3.1 17.8-17.8L236.2 614l-17.8 17.8z" fill="#108EE9" p-id="4497"></path><path d="M650.1 357.2l-2.7 2.7z" fill="#FFFFFF" p-id="4498"></path><path d="M641.666 354.194l2.687-2.687 11.313 11.314-2.687 2.687z" fill="#108EE9" p-id="4499"></path><path d="M236.547 602.313l326.61-326.61 168.36 168.361-326.61 326.61z" fill="#FFFFFF" p-id="4500"></path><path d="M405 782L225.3 602.3l337.9-337.9 179.7 179.7L405 782zM247.9 602.3l157 157L720.2 444l-157-157-315.3 315.3z" fill="#108EE9" p-id="4501"></path><path d="M799.5 308.8l-101-101c-18.6-18.6-48.8-18.6-67.4 0l-23.6 23.6 168.3 168.3 23.6-23.6c18.7-18.6 18.7-48.7 0.1-67.3z" fill="#FFFFFF" p-id="4502"></path><path d="M775.9 411L596.3 231.3l29.2-29.2c10.5-10.5 24.5-16.3 39.3-16.3 14.9 0 28.8 5.8 39.3 16.3l101 101c21.7 21.7 21.7 57 0 78.7L775.9 411z m-157-179.7l157 157 17.9-17.9c15.5-15.5 15.5-40.6 0-56l-101-101c-7.5-7.5-17.4-11.6-28-11.6-10.6 0-20.5 4.1-28 11.6l-17.9 17.9z" fill="#108EE9" p-id="4503"></path><path d="M565.86 273.049l41.72-41.72L775.94 399.69l-41.72 41.72z" fill="#FFFFFF" p-id="4504"></path><path d="M734.2 452.7L554.6 273l53-53 179.7 179.7-53.1 53zM577.2 273l157 157 30.4-30.4-157-157-30.4 30.4z" fill="#108EE9" p-id="4505"></path><path d="M197.5 822.2h628.9v16H197.5z" fill="#108EE9" p-id="4506"></path></svg>